<svg width="2159" height="1502" viewBox="0 0 2159 1502" fill="none" xmlns="http://www.w3.org/2000/svg">
<g opacity="0.2" filter="url(#filter0_f_175_198)">
<ellipse cx="1079.5" cy="751" rx="678.5" ry="350" fill="#B3A659"/>
</g>
<path d="M594.314 987C595.827 987 596.973 987.63 597.751 988.891C598.543 990.138 598.939 991.953 598.939 994.336C598.939 996.719 598.543 998.541 597.751 999.802C596.973 1001.06 595.827 1001.69 594.314 1001.69C592.815 1001.69 591.67 1001.06 590.878 999.802C590.086 998.541 589.69 996.719 589.69 994.336C589.69 991.967 590.086 990.152 590.878 988.891C591.67 987.63 592.815 987 594.314 987ZM591.196 994.336C591.196 996.026 591.352 997.35 591.663 998.306L596.372 989.099C595.877 988.448 595.191 988.122 594.314 988.122C593.338 988.122 592.575 988.635 592.023 989.66C591.472 990.672 591.196 992.23 591.196 994.336ZM594.314 1000.55C595.304 1000.55 596.075 1000.04 596.626 999.033C597.178 998.008 597.454 996.442 597.454 994.336C597.454 992.549 597.277 991.163 596.923 990.18L592.214 999.469C592.723 1000.19 593.423 1000.55 594.314 1000.55Z" fill="url(#paint0_linear_175_198)" fill-opacity="0.6"/>
<path d="M595.587 1024.13H598.705V1025.24H590.623V1024.13H594.229V1012.46L590.793 1014.47L590.199 1013.54L594.442 1010.96H595.587V1024.13Z" fill="url(#paint1_linear_175_198)" fill-opacity="0.6"/>
<path d="M594.314 1034.5C595.827 1034.5 596.973 1035.13 597.751 1036.39C598.543 1037.64 598.939 1039.46 598.939 1041.84C598.939 1044.22 598.543 1046.04 597.751 1047.3C596.973 1048.56 595.827 1049.2 594.314 1049.2C592.815 1049.2 591.67 1048.56 590.878 1047.3C590.086 1046.04 589.69 1044.22 589.69 1041.84C589.69 1039.47 590.086 1037.65 590.878 1036.39C591.67 1035.13 592.815 1034.5 594.314 1034.5ZM591.196 1041.84C591.196 1043.53 591.352 1044.85 591.663 1045.81L596.372 1036.6C595.877 1035.95 595.191 1035.62 594.314 1035.62C593.338 1035.62 592.575 1036.14 592.023 1037.16C591.472 1038.17 591.196 1039.73 591.196 1041.84ZM594.314 1048.05C595.304 1048.05 596.075 1047.55 596.626 1046.53C597.178 1045.51 597.454 1043.94 597.454 1041.84C597.454 1040.05 597.277 1038.67 596.923 1037.68L592.214 1046.97C592.723 1047.69 593.423 1048.05 594.314 1048.05Z" fill="url(#paint2_linear_175_198)" fill-opacity="0.6"/>
<path d="M595.587 1071.64H598.705V1072.74H590.623V1071.64H594.229V1059.96L590.793 1061.97L590.199 1061.04L594.442 1058.46H595.587V1071.64Z" fill="url(#paint3_linear_175_198)" fill-opacity="0.6"/>
<path d="M595.587 1095.39H598.705V1096.49H590.623V1095.39H594.229V1083.71L590.793 1085.72L590.199 1084.79L594.442 1082.21H595.587V1095.39Z" fill="url(#paint4_linear_175_198)" fill-opacity="0.6"/>
<path d="M594.314 1105.76C595.827 1105.76 596.973 1106.39 597.751 1107.65C598.543 1108.89 598.939 1110.71 598.939 1113.09C598.939 1115.47 598.543 1117.3 597.751 1118.56C596.973 1119.82 595.827 1120.45 594.314 1120.45C592.815 1120.45 591.67 1119.82 590.878 1118.56C590.086 1117.3 589.69 1115.47 589.69 1113.09C589.69 1110.72 590.086 1108.91 590.878 1107.65C591.67 1106.39 592.815 1105.76 594.314 1105.76ZM591.196 1113.09C591.196 1114.78 591.352 1116.1 591.663 1117.06L596.372 1107.85C595.877 1107.2 595.191 1106.88 594.314 1106.88C593.338 1106.88 592.575 1107.39 592.023 1108.42C591.472 1109.43 591.196 1110.99 591.196 1113.09ZM594.314 1119.31C595.304 1119.31 596.075 1118.8 596.626 1117.79C597.178 1116.76 597.454 1115.2 597.454 1113.09C597.454 1111.3 597.277 1109.92 596.923 1108.93L592.214 1118.22C592.723 1118.95 593.423 1119.31 594.314 1119.31Z" fill="url(#paint5_linear_175_198)" fill-opacity="0.6"/>
<path d="M595.587 1142.89H598.705V1143.99H590.623V1142.89H594.229V1131.21L590.793 1133.23L590.199 1132.29L594.442 1129.71H595.587V1142.89Z" fill="url(#paint6_linear_175_198)" fill-opacity="0.6"/>
<path d="M594.314 1153.26C595.827 1153.26 596.973 1153.89 597.751 1155.15C598.543 1156.4 598.939 1158.21 598.939 1160.59C598.939 1162.98 598.543 1164.8 597.751 1166.06C596.973 1167.32 595.827 1167.95 594.314 1167.95C592.815 1167.95 591.67 1167.32 590.878 1166.06C590.086 1164.8 589.69 1162.98 589.69 1160.59C589.69 1158.22 590.086 1156.41 590.878 1155.15C591.67 1153.89 592.815 1153.26 594.314 1153.26ZM591.196 1160.59C591.196 1162.28 591.352 1163.61 591.663 1164.56L596.372 1155.36C595.877 1154.71 595.191 1154.38 594.314 1154.38C593.338 1154.38 592.575 1154.89 592.023 1155.92C591.472 1156.93 591.196 1158.49 591.196 1160.59ZM594.314 1166.81C595.304 1166.81 596.075 1166.3 596.626 1165.29C597.178 1164.27 597.454 1162.7 597.454 1160.59C597.454 1158.81 597.277 1157.42 596.923 1156.44L592.214 1165.73C592.723 1166.45 593.423 1166.81 594.314 1166.81Z" fill="url(#paint7_linear_175_198)" fill-opacity="0.6"/>
<path d="M594.314 1177.01C595.827 1177.01 596.973 1177.64 597.751 1178.9C598.543 1180.15 598.939 1181.96 598.939 1184.34C598.939 1186.73 598.543 1188.55 597.751 1189.81C596.973 1191.07 595.827 1191.7 594.314 1191.7C592.815 1191.7 591.67 1191.07 590.878 1189.81C590.086 1188.55 589.69 1186.73 589.69 1184.34C589.69 1181.98 590.086 1180.16 590.878 1178.9C591.67 1177.64 592.815 1177.01 594.314 1177.01ZM591.196 1184.34C591.196 1186.03 591.352 1187.36 591.663 1188.31L596.372 1179.11C595.877 1178.46 595.191 1178.13 594.314 1178.13C593.338 1178.13 592.575 1178.64 592.023 1179.67C591.472 1180.68 591.196 1182.24 591.196 1184.34ZM594.314 1190.56C595.304 1190.56 596.075 1190.05 596.626 1189.04C597.178 1188.02 597.454 1186.45 597.454 1184.34C597.454 1182.56 597.277 1181.17 596.923 1180.19L592.214 1189.48C592.723 1190.2 593.423 1190.56 594.314 1190.56Z" fill="url(#paint8_linear_175_198)" fill-opacity="0.6"/>
<path d="M595.587 1214.14H598.705V1215.24H590.623V1214.14H594.229V1202.46L590.793 1204.48L590.199 1203.54L594.442 1200.97H595.587V1214.14Z" fill="url(#paint9_linear_175_198)" fill-opacity="0.6"/>
<path d="M594.314 1224.51C595.827 1224.51 596.973 1225.14 597.751 1226.4C598.543 1227.65 598.939 1229.46 598.939 1231.85C598.939 1234.23 598.543 1236.05 597.751 1237.31C596.973 1238.57 595.827 1239.2 594.314 1239.2C592.815 1239.2 591.67 1238.57 590.878 1237.31C590.086 1236.05 589.69 1234.23 589.69 1231.85C589.69 1229.48 590.086 1227.66 590.878 1226.4C591.67 1225.14 592.815 1224.51 594.314 1224.51ZM591.196 1231.85C591.196 1233.54 591.352 1234.86 591.663 1235.82L596.372 1226.61C595.877 1225.96 595.191 1225.63 594.314 1225.63C593.338 1225.63 592.575 1226.15 592.023 1227.17C591.472 1228.18 591.196 1229.74 591.196 1231.85ZM594.314 1238.06C595.304 1238.06 596.075 1237.55 596.626 1236.54C597.178 1235.52 597.454 1233.95 597.454 1231.85C597.454 1230.06 597.277 1228.67 596.923 1227.69L592.214 1236.98C592.723 1237.7 593.423 1238.06 594.314 1238.06Z" fill="url(#paint10_linear_175_198)" fill-opacity="0.6"/>
<path d="M595.587 1261.65H598.705V1262.75H590.623V1261.65H594.229V1249.97L590.793 1251.98L590.199 1251.05L594.442 1248.47H595.587V1261.65Z" fill="url(#paint11_linear_175_198)" fill-opacity="0.6"/>
<path d="M595.587 1285.4H598.705V1286.5H590.623V1285.4H594.229V1273.72L590.793 1275.73L590.199 1274.8L594.442 1272.22H595.587V1285.4Z" fill="url(#paint12_linear_175_198)" fill-opacity="0.6"/>
<path d="M633.709 1034.5C635.222 1034.5 636.368 1035.13 637.145 1036.39C637.937 1037.64 638.333 1039.46 638.333 1041.84C638.333 1044.22 637.937 1046.04 637.145 1047.3C636.368 1048.56 635.222 1049.2 633.709 1049.2C632.21 1049.2 631.064 1048.56 630.272 1047.3C629.481 1046.04 629.085 1044.22 629.085 1041.84C629.085 1039.47 629.481 1037.65 630.272 1036.39C631.064 1035.13 632.21 1034.5 633.709 1034.5ZM630.591 1041.84C630.591 1043.53 630.746 1044.85 631.057 1045.81L635.767 1036.6C635.272 1035.95 634.586 1035.62 633.709 1035.62C632.733 1035.62 631.969 1036.14 631.418 1037.16C630.866 1038.17 630.591 1039.73 630.591 1041.84ZM633.709 1048.05C634.699 1048.05 635.47 1047.55 636.021 1046.53C636.573 1045.51 636.848 1043.94 636.848 1041.84C636.848 1040.05 636.672 1038.67 636.318 1037.68L631.609 1046.97C632.118 1047.69 632.818 1048.05 633.709 1048.05Z" fill="url(#paint13_linear_175_198)" fill-opacity="0.6"/>
<path d="M634.982 1071.64H638.1V1072.74H630.018V1071.64H633.624V1059.96L630.188 1061.97L629.594 1061.04L633.836 1058.46H634.982V1071.64Z" fill="url(#paint14_linear_175_198)" fill-opacity="0.6"/>
<path d="M633.709 1082C635.222 1082 636.368 1082.63 637.145 1083.9C637.937 1085.14 638.333 1086.96 638.333 1089.34C638.333 1091.72 637.937 1093.55 637.145 1094.81C636.368 1096.07 635.222 1096.7 633.709 1096.7C632.21 1096.7 631.064 1096.07 630.272 1094.81C629.481 1093.55 629.085 1091.72 629.085 1089.34C629.085 1086.97 629.481 1085.16 630.272 1083.9C631.064 1082.63 632.21 1082 633.709 1082ZM630.591 1089.34C630.591 1091.03 630.746 1092.35 631.057 1093.31L635.767 1084.1C635.272 1083.45 634.586 1083.13 633.709 1083.13C632.733 1083.13 631.969 1083.64 631.418 1084.66C630.866 1085.68 630.591 1087.23 630.591 1089.34ZM633.709 1095.55C634.699 1095.55 635.47 1095.05 636.021 1094.04C636.573 1093.01 636.848 1091.45 636.848 1089.34C636.848 1087.55 636.672 1086.17 636.318 1085.18L631.609 1094.47C632.118 1095.19 632.818 1095.55 633.709 1095.55Z" fill="url(#paint15_linear_175_198)" fill-opacity="0.6"/>
<path d="M633.709 1105.76C635.222 1105.76 636.368 1106.39 637.145 1107.65C637.937 1108.89 638.333 1110.71 638.333 1113.09C638.333 1115.47 637.937 1117.3 637.145 1118.56C636.368 1119.82 635.222 1120.45 633.709 1120.45C632.21 1120.45 631.064 1119.82 630.272 1118.56C629.481 1117.3 629.085 1115.47 629.085 1113.09C629.085 1110.72 629.481 1108.91 630.272 1107.65C631.064 1106.39 632.21 1105.76 633.709 1105.76ZM630.591 1113.09C630.591 1114.78 630.746 1116.1 631.057 1117.06L635.767 1107.85C635.272 1107.2 634.586 1106.88 633.709 1106.88C632.733 1106.88 631.969 1107.39 631.418 1108.42C630.866 1109.43 630.591 1110.99 630.591 1113.09ZM633.709 1119.31C634.699 1119.31 635.47 1118.8 636.021 1117.79C636.573 1116.76 636.848 1115.2 636.848 1113.09C636.848 1111.3 636.672 1109.92 636.318 1108.93L631.609 1118.22C632.118 1118.95 632.818 1119.31 633.709 1119.31Z" fill="url(#paint16_linear_175_198)" fill-opacity="0.6"/>
<path d="M634.982 1142.89H638.1V1143.99H630.018V1142.89H633.624V1131.21L630.188 1133.23L629.594 1132.29L633.836 1129.71H634.982V1142.89Z" fill="url(#paint17_linear_175_198)" fill-opacity="0.6"/>
<path d="M633.709 1153.26C635.222 1153.26 636.368 1153.89 637.145 1155.15C637.937 1156.4 638.333 1158.21 638.333 1160.59C638.333 1162.98 637.937 1164.8 637.145 1166.06C636.368 1167.32 635.222 1167.95 633.709 1167.95C632.21 1167.95 631.064 1167.32 630.272 1166.06C629.481 1164.8 629.085 1162.98 629.085 1160.59C629.085 1158.22 629.481 1156.41 630.272 1155.15C631.064 1153.89 632.21 1153.26 633.709 1153.26ZM630.591 1160.59C630.591 1162.28 630.746 1163.61 631.057 1164.56L635.767 1155.36C635.272 1154.71 634.586 1154.38 633.709 1154.38C632.733 1154.38 631.969 1154.89 631.418 1155.92C630.866 1156.93 630.591 1158.49 630.591 1160.59ZM633.709 1166.81C634.699 1166.81 635.47 1166.3 636.021 1165.29C636.573 1164.27 636.848 1162.7 636.848 1160.59C636.848 1158.81 636.672 1157.42 636.318 1156.44L631.609 1165.73C632.118 1166.45 632.818 1166.81 633.709 1166.81Z" fill="url(#paint18_linear_175_198)" fill-opacity="0.6"/>
<path d="M634.982 1190.39H638.1V1191.49H630.018V1190.39H633.624V1178.71L630.188 1180.73L629.594 1179.79L633.836 1177.22H634.982V1190.39Z" fill="url(#paint19_linear_175_198)" fill-opacity="0.6"/>
<path d="M633.709 1200.76C635.222 1200.76 636.368 1201.39 637.145 1202.65C637.937 1203.9 638.333 1205.71 638.333 1208.1C638.333 1210.48 637.937 1212.3 637.145 1213.56C636.368 1214.82 635.222 1215.45 633.709 1215.45C632.21 1215.45 631.064 1214.82 630.272 1213.56C629.481 1212.3 629.085 1210.48 629.085 1208.1C629.085 1205.73 629.481 1203.91 630.272 1202.65C631.064 1201.39 632.21 1200.76 633.709 1200.76ZM630.591 1208.1C630.591 1209.79 630.746 1211.11 631.057 1212.07L635.767 1202.86C635.272 1202.21 634.586 1201.88 633.709 1201.88C632.733 1201.88 631.969 1202.39 631.418 1203.42C630.866 1204.43 630.591 1205.99 630.591 1208.1ZM633.709 1214.31C634.699 1214.31 635.47 1213.8 636.021 1212.79C636.573 1211.77 636.848 1210.2 636.848 1208.1C636.848 1206.31 636.672 1204.92 636.318 1203.94L631.609 1213.23C632.118 1213.95 632.818 1214.31 633.709 1214.31Z" fill="url(#paint20_linear_175_198)" fill-opacity="0.6"/>
<path d="M633.709 1224.51C635.222 1224.51 636.368 1225.14 637.145 1226.4C637.937 1227.65 638.333 1229.46 638.333 1231.85C638.333 1234.23 637.937 1236.05 637.145 1237.31C636.368 1238.57 635.222 1239.2 633.709 1239.2C632.21 1239.2 631.064 1238.57 630.272 1237.31C629.481 1236.05 629.085 1234.23 629.085 1231.85C629.085 1229.48 629.481 1227.66 630.272 1226.4C631.064 1225.14 632.21 1224.51 633.709 1224.51ZM630.591 1231.85C630.591 1233.54 630.746 1234.86 631.057 1235.82L635.767 1226.61C635.272 1225.96 634.586 1225.63 633.709 1225.63C632.733 1225.63 631.969 1226.15 631.418 1227.17C630.866 1228.18 630.591 1229.74 630.591 1231.85ZM633.709 1238.06C634.699 1238.06 635.47 1237.55 636.021 1236.54C636.573 1235.52 636.848 1233.95 636.848 1231.85C636.848 1230.06 636.672 1228.67 636.318 1227.69L631.609 1236.98C632.118 1237.7 632.818 1238.06 633.709 1238.06Z" fill="url(#paint21_linear_175_198)" fill-opacity="0.6"/>
<path d="M634.982 1261.65H638.1V1262.75H630.018V1261.65H633.624V1249.97L630.188 1251.98L629.594 1251.05L633.836 1248.47H634.982V1261.65Z" fill="url(#paint22_linear_175_198)" fill-opacity="0.6"/>
<path d="M633.709 1272.01C635.222 1272.01 636.368 1272.64 637.145 1273.9C637.937 1275.15 638.333 1276.97 638.333 1279.35C638.333 1281.73 637.937 1283.55 637.145 1284.81C636.368 1286.08 635.222 1286.71 633.709 1286.71C632.21 1286.71 631.064 1286.08 630.272 1284.81C629.481 1283.55 629.085 1281.73 629.085 1279.35C629.085 1276.98 629.481 1275.16 630.272 1273.9C631.064 1272.64 632.21 1272.01 633.709 1272.01ZM630.591 1279.35C630.591 1281.04 630.746 1282.36 631.057 1283.32L635.767 1274.11C635.272 1273.46 634.586 1273.13 633.709 1273.13C632.733 1273.13 631.969 1273.65 631.418 1274.67C630.866 1275.68 630.591 1277.24 630.591 1279.35ZM633.709 1285.56C634.699 1285.56 635.47 1285.06 636.021 1284.05C636.573 1283.02 636.848 1281.45 636.848 1279.35C636.848 1277.56 636.672 1276.18 636.318 1275.19L631.609 1284.48C632.118 1285.2 632.818 1285.56 633.709 1285.56Z" fill="url(#paint23_linear_175_198)" fill-opacity="0.6"/>
<path d="M634.982 1309.15H638.1V1310.25H630.018V1309.15H633.624V1297.47L630.188 1299.48L629.594 1298.55L633.836 1295.97H634.982V1309.15Z" fill="url(#paint24_linear_175_198)" fill-opacity="0.6"/>
<path d="M634.982 1332.9H638.1V1334H630.018V1332.9H633.624V1321.22L630.188 1323.23L629.594 1322.3L633.836 1319.72H634.982V1332.9Z" fill="url(#paint25_linear_175_198)" fill-opacity="0.6"/>
<path d="M574.617 1058.25C576.13 1058.25 577.276 1058.88 578.053 1060.14C578.845 1061.39 579.241 1063.21 579.241 1065.59C579.241 1067.97 578.845 1069.79 578.053 1071.05C577.276 1072.32 576.13 1072.95 574.617 1072.95C573.118 1072.95 571.972 1072.32 571.18 1071.05C570.389 1069.79 569.993 1067.97 569.993 1065.59C569.993 1063.22 570.389 1061.41 571.18 1060.14C571.972 1058.88 573.118 1058.25 574.617 1058.25ZM571.499 1065.59C571.499 1067.28 571.654 1068.6 571.965 1069.56L576.674 1060.35C576.18 1059.7 575.494 1059.38 574.617 1059.38C573.641 1059.38 572.877 1059.89 572.326 1060.91C571.774 1061.92 571.499 1063.48 571.499 1065.59ZM574.617 1071.8C575.607 1071.8 576.378 1071.3 576.929 1070.29C577.481 1069.26 577.756 1067.7 577.756 1065.59C577.756 1063.8 577.58 1062.42 577.226 1061.43L572.517 1070.72C573.026 1071.44 573.726 1071.8 574.617 1071.8Z" fill="url(#paint26_linear_175_198)" fill-opacity="0.6"/>
<path d="M574.617 1082C576.13 1082 577.276 1082.63 578.053 1083.9C578.845 1085.14 579.241 1086.96 579.241 1089.34C579.241 1091.72 578.845 1093.55 578.053 1094.81C577.276 1096.07 576.13 1096.7 574.617 1096.7C573.118 1096.7 571.972 1096.07 571.18 1094.81C570.389 1093.55 569.993 1091.72 569.993 1089.34C569.993 1086.97 570.389 1085.16 571.18 1083.9C571.972 1082.63 573.118 1082 574.617 1082ZM571.499 1089.34C571.499 1091.03 571.654 1092.35 571.965 1093.31L576.674 1084.1C576.18 1083.45 575.494 1083.13 574.617 1083.13C573.641 1083.13 572.877 1083.64 572.326 1084.66C571.774 1085.68 571.499 1087.23 571.499 1089.34ZM574.617 1095.55C575.607 1095.55 576.378 1095.05 576.929 1094.04C577.481 1093.01 577.756 1091.45 577.756 1089.34C577.756 1087.55 577.58 1086.17 577.226 1085.18L572.517 1094.47C573.026 1095.19 573.726 1095.55 574.617 1095.55Z" fill="url(#paint27_linear_175_198)" fill-opacity="0.6"/>
<path d="M575.89 1119.14H579.008V1120.24H570.926V1119.14H574.532V1107.46L571.096 1109.48L570.502 1108.54L574.744 1105.96H575.89V1119.14Z" fill="url(#paint28_linear_175_198)" fill-opacity="0.6"/>
<path d="M574.617 1129.51C576.13 1129.51 577.276 1130.14 578.053 1131.4C578.845 1132.64 579.241 1134.46 579.241 1136.84C579.241 1139.23 578.845 1141.05 578.053 1142.31C577.276 1143.57 576.13 1144.2 574.617 1144.2C573.118 1144.2 571.972 1143.57 571.18 1142.31C570.389 1141.05 569.993 1139.23 569.993 1136.84C569.993 1134.47 570.389 1132.66 571.18 1131.4C571.972 1130.14 573.118 1129.51 574.617 1129.51ZM571.499 1136.84C571.499 1138.53 571.654 1139.86 571.965 1140.81L576.674 1131.61C576.18 1130.95 575.494 1130.63 574.617 1130.63C573.641 1130.63 572.877 1131.14 572.326 1132.17C571.774 1133.18 571.499 1134.74 571.499 1136.84ZM574.617 1143.06C575.607 1143.06 576.378 1142.55 576.929 1141.54C577.481 1140.51 577.756 1138.95 577.756 1136.84C577.756 1135.06 577.58 1133.67 577.226 1132.69L572.517 1141.98C573.026 1142.7 573.726 1143.06 574.617 1143.06Z" fill="url(#paint29_linear_175_198)" fill-opacity="0.6"/>
<path d="M575.89 1166.64H579.008V1167.74H570.926V1166.64H574.532V1154.96L571.096 1156.98L570.502 1156.04L574.744 1153.47H575.89V1166.64Z" fill="url(#paint30_linear_175_198)" fill-opacity="0.6"/>
<path d="M575.89 1190.39H579.008V1191.49H570.926V1190.39H574.532V1178.71L571.096 1180.73L570.502 1179.79L574.744 1177.22H575.89V1190.39Z" fill="url(#paint31_linear_175_198)" fill-opacity="0.6"/>
<path d="M615.284 1024.13H618.403V1025.24H610.321V1024.13H613.927V1012.46L610.49 1014.47L609.896 1013.54L614.139 1010.96H615.284V1024.13Z" fill="url(#paint32_linear_175_198)" fill-opacity="0.6"/>
<path d="M614.012 1034.5C615.525 1034.5 616.67 1035.13 617.448 1036.39C618.24 1037.64 618.636 1039.46 618.636 1041.84C618.636 1044.22 618.24 1046.04 617.448 1047.3C616.67 1048.56 615.525 1049.2 614.012 1049.2C612.513 1049.2 611.367 1048.56 610.575 1047.3C609.783 1046.04 609.387 1044.22 609.387 1041.84C609.387 1039.47 609.783 1037.65 610.575 1036.39C611.367 1035.13 612.513 1034.5 614.012 1034.5ZM610.893 1041.84C610.893 1043.53 611.049 1044.85 611.36 1045.81L616.069 1036.6C615.574 1035.95 614.888 1035.62 614.012 1035.62C613.036 1035.62 612.272 1036.14 611.721 1037.16C611.169 1038.17 610.893 1039.73 610.893 1041.84ZM614.012 1048.05C615.001 1048.05 615.772 1047.55 616.324 1046.53C616.875 1045.51 617.151 1043.94 617.151 1041.84C617.151 1040.05 616.974 1038.67 616.621 1037.68L611.912 1046.97C612.421 1047.69 613.121 1048.05 614.012 1048.05Z" fill="url(#paint33_linear_175_198)" fill-opacity="0.6"/>
<path d="M615.284 1071.64H618.403V1072.74H610.321V1071.64H613.927V1059.96L610.49 1061.97L609.896 1061.04L614.139 1058.46H615.284V1071.64Z" fill="url(#paint34_linear_175_198)" fill-opacity="0.6"/>
<path d="M615.284 1095.39H618.403V1096.49H610.321V1095.39H613.927V1083.71L610.49 1085.72L609.896 1084.79L614.139 1082.21H615.284V1095.39Z" fill="url(#paint35_linear_175_198)" fill-opacity="0.6"/>
<path d="M614.012 1105.76C615.525 1105.76 616.67 1106.39 617.448 1107.65C618.24 1108.89 618.636 1110.71 618.636 1113.09C618.636 1115.47 618.24 1117.3 617.448 1118.56C616.67 1119.82 615.525 1120.45 614.012 1120.45C612.513 1120.45 611.367 1119.82 610.575 1118.56C609.783 1117.3 609.387 1115.47 609.387 1113.09C609.387 1110.72 609.783 1108.91 610.575 1107.65C611.367 1106.39 612.513 1105.76 614.012 1105.76ZM610.893 1113.09C610.893 1114.78 611.049 1116.1 611.36 1117.06L616.069 1107.85C615.574 1107.2 614.888 1106.88 614.012 1106.88C613.036 1106.88 612.272 1107.39 611.721 1108.42C611.169 1109.43 610.893 1110.99 610.893 1113.09ZM614.012 1119.31C615.001 1119.31 615.772 1118.8 616.324 1117.79C616.875 1116.76 617.151 1115.2 617.151 1113.09C617.151 1111.3 616.974 1109.92 616.621 1108.93L611.912 1118.22C612.421 1118.95 613.121 1119.31 614.012 1119.31Z" fill="url(#paint36_linear_175_198)" fill-opacity="0.6"/>
<path d="M615.284 1142.89H618.403V1143.99H610.321V1142.89H613.927V1131.21L610.49 1133.23L609.896 1132.29L614.139 1129.71H615.284V1142.89Z" fill="url(#paint37_linear_175_198)" fill-opacity="0.6"/>
<path d="M615.284 1166.64H618.403V1167.74H610.321V1166.64H613.927V1154.96L610.49 1156.98L609.896 1156.04L614.139 1153.47H615.284V1166.64Z" fill="url(#paint38_linear_175_198)" fill-opacity="0.6"/>
<path d="M614.012 1177.01C615.525 1177.01 616.67 1177.64 617.448 1178.9C618.24 1180.15 618.636 1181.96 618.636 1184.34C618.636 1186.73 618.24 1188.55 617.448 1189.81C616.67 1191.07 615.525 1191.7 614.012 1191.7C612.513 1191.7 611.367 1191.07 610.575 1189.81C609.783 1188.55 609.387 1186.73 609.387 1184.34C609.387 1181.98 609.783 1180.16 610.575 1178.9C611.367 1177.64 612.513 1177.01 614.012 1177.01ZM610.893 1184.34C610.893 1186.03 611.049 1187.36 611.36 1188.31L616.069 1179.11C615.574 1178.46 614.888 1178.13 614.012 1178.13C613.036 1178.13 612.272 1178.64 611.721 1179.67C611.169 1180.68 610.893 1182.24 610.893 1184.34ZM614.012 1190.56C615.001 1190.56 615.772 1190.05 616.324 1189.04C616.875 1188.02 617.151 1186.45 617.151 1184.34C617.151 1182.56 616.974 1181.17 616.621 1180.19L611.912 1189.48C612.421 1190.2 613.121 1190.56 614.012 1190.56Z" fill="url(#paint39_linear_175_198)" fill-opacity="0.6"/>
<path d="M615.284 1214.14H618.403V1215.24H610.321V1214.14H613.927V1202.46L610.49 1204.48L609.896 1203.54L614.139 1200.97H615.284V1214.14Z" fill="url(#paint40_linear_175_198)" fill-opacity="0.6"/>
<path d="M614.012 1224.51C615.525 1224.51 616.67 1225.14 617.448 1226.4C618.24 1227.65 618.636 1229.46 618.636 1231.85C618.636 1234.23 618.24 1236.05 617.448 1237.31C616.67 1238.57 615.525 1239.2 614.012 1239.2C612.513 1239.2 611.367 1238.57 610.575 1237.31C609.783 1236.05 609.387 1234.23 609.387 1231.85C609.387 1229.48 609.783 1227.66 610.575 1226.4C611.367 1225.14 612.513 1224.51 614.012 1224.51ZM610.893 1231.85C610.893 1233.54 611.049 1234.86 611.36 1235.82L616.069 1226.61C615.574 1225.96 614.888 1225.63 614.012 1225.63C613.036 1225.63 612.272 1226.15 611.721 1227.17C611.169 1228.18 610.893 1229.74 610.893 1231.85ZM614.012 1238.06C615.001 1238.06 615.772 1237.55 616.324 1236.54C616.875 1235.52 617.151 1233.95 617.151 1231.85C617.151 1230.06 616.974 1228.67 616.621 1227.69L611.912 1236.98C612.421 1237.7 613.121 1238.06 614.012 1238.06Z" fill="url(#paint41_linear_175_198)" fill-opacity="0.6"/>
<path d="M653.406 1010.75C654.919 1010.75 656.065 1011.38 656.843 1012.64C657.635 1013.89 658.031 1015.7 658.031 1018.09C658.031 1020.47 657.635 1022.29 656.843 1023.55C656.065 1024.81 654.919 1025.44 653.406 1025.44C651.907 1025.44 650.762 1024.81 649.97 1023.55C649.178 1022.29 648.782 1020.47 648.782 1018.09C648.782 1015.72 649.178 1013.9 649.97 1012.64C650.762 1011.38 651.907 1010.75 653.406 1010.75ZM650.288 1018.09C650.288 1019.78 650.444 1021.1 650.755 1022.06L655.464 1012.85C654.969 1012.2 654.283 1011.87 653.406 1011.87C652.43 1011.87 651.667 1012.39 651.115 1013.41C650.564 1014.42 650.288 1015.98 650.288 1018.09ZM653.406 1024.3C654.396 1024.3 655.167 1023.8 655.718 1022.78C656.27 1021.76 656.546 1020.19 656.546 1018.09C656.546 1016.3 656.369 1014.91 656.015 1013.93L651.306 1023.22C651.815 1023.94 652.515 1024.3 653.406 1024.3Z" fill="url(#paint42_linear_175_198)" fill-opacity="0.6"/>
<path d="M654.679 1047.89H657.797V1048.99H649.715V1047.89H653.321V1036.21L649.885 1038.22L649.291 1037.29L653.534 1034.71H654.679V1047.89Z" fill="url(#paint43_linear_175_198)" fill-opacity="0.6"/>
<path d="M654.679 1071.64H657.797V1072.74H649.715V1071.64H653.321V1059.96L649.885 1061.97L649.291 1061.04L653.534 1058.46H654.679V1071.64Z" fill="url(#paint44_linear_175_198)" fill-opacity="0.6"/>
<path d="M653.406 1082C654.919 1082 656.065 1082.63 656.843 1083.9C657.635 1085.14 658.031 1086.96 658.031 1089.34C658.031 1091.72 657.635 1093.55 656.843 1094.81C656.065 1096.07 654.919 1096.7 653.406 1096.7C651.907 1096.7 650.762 1096.07 649.97 1094.81C649.178 1093.55 648.782 1091.72 648.782 1089.34C648.782 1086.97 649.178 1085.16 649.97 1083.9C650.762 1082.63 651.907 1082 653.406 1082ZM650.288 1089.34C650.288 1091.03 650.444 1092.35 650.755 1093.31L655.464 1084.1C654.969 1083.45 654.283 1083.13 653.406 1083.13C652.43 1083.13 651.667 1083.64 651.115 1084.66C650.564 1085.68 650.288 1087.23 650.288 1089.34ZM653.406 1095.55C654.396 1095.55 655.167 1095.05 655.718 1094.04C656.27 1093.01 656.546 1091.45 656.546 1089.34C656.546 1087.55 656.369 1086.17 656.015 1085.18L651.306 1094.47C651.815 1095.19 652.515 1095.55 653.406 1095.55Z" fill="url(#paint45_linear_175_198)" fill-opacity="0.6"/>
<path d="M653.406 1105.76C654.919 1105.76 656.065 1106.39 656.843 1107.65C657.635 1108.89 658.031 1110.71 658.031 1113.09C658.031 1115.47 657.635 1117.3 656.843 1118.56C656.065 1119.82 654.919 1120.45 653.406 1120.45C651.907 1120.45 650.762 1119.82 649.97 1118.56C649.178 1117.3 648.782 1115.47 648.782 1113.09C648.782 1110.72 649.178 1108.91 649.97 1107.65C650.762 1106.39 651.907 1105.76 653.406 1105.76ZM650.288 1113.09C650.288 1114.78 650.444 1116.1 650.755 1117.06L655.464 1107.85C654.969 1107.2 654.283 1106.88 653.406 1106.88C652.43 1106.88 651.667 1107.39 651.115 1108.42C650.564 1109.43 650.288 1110.99 650.288 1113.09ZM653.406 1119.31C654.396 1119.31 655.167 1118.8 655.718 1117.79C656.27 1116.76 656.546 1115.2 656.546 1113.09C656.546 1111.3 656.369 1109.92 656.015 1108.93L651.306 1118.22C651.815 1118.95 652.515 1119.31 653.406 1119.31Z" fill="url(#paint46_linear_175_198)" fill-opacity="0.6"/>
<g opacity="0.6">
<path d="M1491.79 687C1493.23 687 1494.33 687.605 1495.07 688.815C1495.83 690.011 1496.2 691.753 1496.2 694.04C1496.2 696.327 1495.83 698.075 1495.07 699.285C1494.33 700.495 1493.23 701.1 1491.79 701.1C1490.36 701.1 1489.27 700.495 1488.51 699.285C1487.76 698.075 1487.38 696.327 1487.38 694.04C1487.38 691.767 1487.76 690.025 1488.51 688.815C1489.27 687.605 1490.36 687 1491.79 687ZM1488.82 694.04C1488.82 695.662 1488.96 696.932 1489.26 697.849L1493.75 689.014C1493.28 688.389 1492.63 688.077 1491.79 688.077C1490.86 688.077 1490.13 688.569 1489.61 689.553C1489.08 690.523 1488.82 692.019 1488.82 694.04ZM1491.79 700.003C1492.74 700.003 1493.47 699.518 1494 698.547C1494.52 697.564 1494.79 696.061 1494.79 694.04C1494.79 692.325 1494.62 690.995 1494.28 690.051L1489.79 698.966C1490.27 699.658 1490.94 700.003 1491.79 700.003Z" fill="url(#paint47_linear_175_198)"/>
<path d="M1493.01 722.637H1495.98V723.694H1488.27V722.637H1491.71V711.428L1488.43 713.363L1487.87 712.465L1491.91 709.992H1493.01V722.637Z" fill="url(#paint48_linear_175_198)"/>
<path d="M1491.79 732.586C1493.23 732.586 1494.33 733.191 1495.07 734.4C1495.83 735.597 1496.2 737.339 1496.2 739.626C1496.2 741.913 1495.83 743.661 1495.07 744.871C1494.33 746.081 1493.23 746.686 1491.79 746.686C1490.36 746.686 1489.27 746.081 1488.51 744.871C1487.76 743.661 1487.38 741.913 1487.38 739.626C1487.38 737.352 1487.76 735.61 1488.51 734.4C1489.27 733.191 1490.36 732.586 1491.79 732.586ZM1488.82 739.626C1488.82 741.248 1488.96 742.518 1489.26 743.435L1493.75 734.6C1493.28 733.975 1492.63 733.663 1491.79 733.663C1490.86 733.663 1490.13 734.155 1489.61 735.138C1489.08 736.109 1488.82 737.605 1488.82 739.626ZM1491.79 745.589C1492.74 745.589 1493.47 745.104 1494 744.133C1494.52 743.149 1494.79 741.647 1494.79 739.626C1494.79 737.911 1494.62 736.581 1494.28 735.637L1489.79 744.552C1490.27 745.243 1490.94 745.589 1491.79 745.589Z" fill="url(#paint49_linear_175_198)"/>
<path d="M1493.01 768.222H1495.98V769.279H1488.27V768.222H1491.71V757.014L1488.43 758.948L1487.87 758.051L1491.91 755.578H1493.01V768.222Z" fill="url(#paint50_linear_175_198)"/>
<path d="M1493.01 791.015H1495.98V792.072H1488.27V791.015H1491.71V779.807L1488.43 781.741L1487.87 780.844L1491.91 778.371H1493.01V791.015Z" fill="url(#paint51_linear_175_198)"/>
<path d="M1491.79 800.964C1493.23 800.964 1494.33 801.569 1495.07 802.779C1495.83 803.976 1496.2 805.717 1496.2 808.004C1496.2 810.291 1495.83 812.039 1495.07 813.249C1494.33 814.459 1493.23 815.064 1491.79 815.064C1490.36 815.064 1489.27 814.459 1488.51 813.249C1487.76 812.039 1487.38 810.291 1487.38 808.004C1487.38 805.731 1487.76 803.989 1488.51 802.779C1489.27 801.569 1490.36 800.964 1491.79 800.964ZM1488.82 808.004C1488.82 809.626 1488.96 810.896 1489.26 811.813L1493.75 802.978C1493.28 802.353 1492.63 802.041 1491.79 802.041C1490.86 802.041 1490.13 802.533 1489.61 803.517C1489.08 804.487 1488.82 805.983 1488.82 808.004ZM1491.79 813.967C1492.74 813.967 1493.47 813.482 1494 812.511C1494.52 811.528 1494.79 810.025 1494.79 808.004C1494.79 806.289 1494.62 804.959 1494.28 804.015L1489.79 812.93C1490.27 813.622 1490.94 813.967 1491.79 813.967Z" fill="url(#paint52_linear_175_198)"/>
<path d="M1493.01 836.601H1495.98V837.658H1488.27V836.601H1491.71V825.392L1488.43 827.327L1487.87 826.429L1491.91 823.956H1493.01V836.601Z" fill="url(#paint53_linear_175_198)"/>
<path d="M1491.79 846.55C1493.23 846.55 1494.33 847.155 1495.07 848.365C1495.83 849.561 1496.2 851.303 1496.2 853.59C1496.2 855.877 1495.83 857.625 1495.07 858.835C1494.33 860.045 1493.23 860.65 1491.79 860.65C1490.36 860.65 1489.27 860.045 1488.51 858.835C1487.76 857.625 1487.38 855.877 1487.38 853.59C1487.38 851.316 1487.76 849.574 1488.51 848.365C1489.27 847.155 1490.36 846.55 1491.79 846.55ZM1488.82 853.59C1488.82 855.212 1488.96 856.482 1489.26 857.399L1493.75 848.564C1493.28 847.939 1492.63 847.627 1491.79 847.627C1490.86 847.627 1490.13 848.119 1489.61 849.102C1489.08 850.073 1488.82 851.569 1488.82 853.59ZM1491.79 859.553C1492.74 859.553 1493.47 859.068 1494 858.097C1494.52 857.113 1494.79 855.611 1494.79 853.59C1494.79 851.875 1494.62 850.545 1494.28 849.601L1489.79 858.516C1490.27 859.207 1490.94 859.553 1491.79 859.553Z" fill="url(#paint54_linear_175_198)"/>
<path d="M1491.79 869.342C1493.23 869.342 1494.33 869.947 1495.07 871.157C1495.83 872.354 1496.2 874.096 1496.2 876.383C1496.2 878.669 1495.83 880.418 1495.07 881.628C1494.33 882.838 1493.23 883.443 1491.79 883.443C1490.36 883.443 1489.27 882.838 1488.51 881.628C1487.76 880.418 1487.38 878.669 1487.38 876.383C1487.38 874.109 1487.76 872.367 1488.51 871.157C1489.27 869.947 1490.36 869.342 1491.79 869.342ZM1488.82 876.383C1488.82 878.005 1488.96 879.274 1489.26 880.192L1493.75 871.357C1493.28 870.732 1492.63 870.419 1491.79 870.419C1490.86 870.419 1490.13 870.911 1489.61 871.895C1489.08 872.866 1488.82 874.362 1488.82 876.383ZM1491.79 882.346C1492.74 882.346 1493.47 881.86 1494 880.89C1494.52 879.906 1494.79 878.404 1494.79 876.383C1494.79 874.667 1494.62 873.338 1494.28 872.394L1489.79 881.309C1490.27 882 1490.94 882.346 1491.79 882.346Z" fill="url(#paint55_linear_175_198)"/>
<path d="M1493.01 904.979H1495.98V906.036H1488.27V904.979H1491.71V893.771L1488.43 895.705L1487.87 894.808L1491.91 892.335H1493.01V904.979Z" fill="url(#paint56_linear_175_198)"/>
<path d="M1491.79 914.928C1493.23 914.928 1494.33 915.533 1495.07 916.743C1495.83 917.94 1496.2 919.681 1496.2 921.968C1496.2 924.255 1495.83 926.003 1495.07 927.213C1494.33 928.423 1493.23 929.028 1491.79 929.028C1490.36 929.028 1489.27 928.423 1488.51 927.213C1487.76 926.003 1487.38 924.255 1487.38 921.968C1487.38 919.695 1487.76 917.953 1488.51 916.743C1489.27 915.533 1490.36 914.928 1491.79 914.928ZM1488.82 921.968C1488.82 923.59 1488.96 924.86 1489.26 925.777L1493.75 916.942C1493.28 916.317 1492.63 916.005 1491.79 916.005C1490.86 916.005 1490.13 916.497 1489.61 917.481C1489.08 918.451 1488.82 919.947 1488.82 921.968ZM1491.79 927.931C1492.74 927.931 1493.47 927.446 1494 926.475C1494.52 925.492 1494.79 923.989 1494.79 921.968C1494.79 920.253 1494.62 918.923 1494.28 917.979L1489.79 926.894C1490.27 927.586 1490.94 927.931 1491.79 927.931Z" fill="url(#paint57_linear_175_198)"/>
<path d="M1493.01 950.565H1495.98V951.622H1488.27V950.565H1491.71V939.356L1488.43 941.291L1487.87 940.393L1491.91 937.92H1493.01V950.565Z" fill="url(#paint58_linear_175_198)"/>
<path d="M1493.01 973.357H1495.98V974.414H1488.27V973.357H1491.71V962.149L1488.43 964.084L1487.87 963.186L1491.91 960.713H1493.01V973.357Z" fill="url(#paint59_linear_175_198)"/>
<path d="M1529.37 732.586C1530.82 732.586 1531.91 733.191 1532.65 734.4C1533.41 735.597 1533.79 737.339 1533.79 739.626C1533.79 741.913 1533.41 743.661 1532.65 744.871C1531.91 746.081 1530.82 746.686 1529.37 746.686C1527.94 746.686 1526.85 746.081 1526.1 744.871C1525.34 743.661 1524.96 741.913 1524.96 739.626C1524.96 737.352 1525.34 735.61 1526.1 734.4C1526.85 733.191 1527.94 732.586 1529.37 732.586ZM1526.4 739.626C1526.4 741.248 1526.55 742.518 1526.84 743.435L1531.34 734.6C1530.87 733.975 1530.21 733.663 1529.37 733.663C1528.44 733.663 1527.72 734.155 1527.19 735.138C1526.66 736.109 1526.4 737.605 1526.4 739.626ZM1529.37 745.589C1530.32 745.589 1531.05 745.104 1531.58 744.133C1532.11 743.149 1532.37 741.647 1532.37 739.626C1532.37 737.911 1532.2 736.581 1531.86 735.637L1527.37 744.552C1527.86 745.243 1528.52 745.589 1529.37 745.589Z" fill="url(#paint60_linear_175_198)"/>
<path d="M1530.59 768.222H1533.56V769.279H1525.85V768.222H1529.29V757.014L1526.02 758.948L1525.45 758.051L1529.5 755.578H1530.59V768.222Z" fill="url(#paint61_linear_175_198)"/>
<path d="M1529.37 778.171C1530.82 778.171 1531.91 778.776 1532.65 779.986C1533.41 781.183 1533.79 782.924 1533.79 785.211C1533.79 787.498 1533.41 789.247 1532.65 790.457C1531.91 791.666 1530.82 792.271 1529.37 792.271C1527.94 792.271 1526.85 791.666 1526.1 790.457C1525.34 789.247 1524.96 787.498 1524.96 785.211C1524.96 782.938 1525.34 781.196 1526.1 779.986C1526.85 778.776 1527.94 778.171 1529.37 778.171ZM1526.4 785.211C1526.4 786.833 1526.55 788.103 1526.84 789.021L1531.34 780.186C1530.87 779.561 1530.21 779.248 1529.37 779.248C1528.44 779.248 1527.72 779.74 1527.19 780.724C1526.66 781.695 1526.4 783.19 1526.4 785.211ZM1529.37 791.174C1530.32 791.174 1531.05 790.689 1531.58 789.719C1532.11 788.735 1532.37 787.232 1532.37 785.211C1532.37 783.496 1532.2 782.167 1531.86 781.223L1527.37 790.137C1527.86 790.829 1528.52 791.174 1529.37 791.174Z" fill="url(#paint62_linear_175_198)"/>
<path d="M1529.37 800.964C1530.82 800.964 1531.91 801.569 1532.65 802.779C1533.41 803.976 1533.79 805.717 1533.79 808.004C1533.79 810.291 1533.41 812.039 1532.65 813.249C1531.91 814.459 1530.82 815.064 1529.37 815.064C1527.94 815.064 1526.85 814.459 1526.1 813.249C1525.34 812.039 1524.96 810.291 1524.96 808.004C1524.96 805.731 1525.34 803.989 1526.1 802.779C1526.85 801.569 1527.94 800.964 1529.37 800.964ZM1526.4 808.004C1526.4 809.626 1526.55 810.896 1526.84 811.813L1531.34 802.978C1530.87 802.353 1530.21 802.041 1529.37 802.041C1528.44 802.041 1527.72 802.533 1527.19 803.517C1526.66 804.487 1526.4 805.983 1526.4 808.004ZM1529.37 813.967C1530.32 813.967 1531.05 813.482 1531.58 812.511C1532.11 811.528 1532.37 810.025 1532.37 808.004C1532.37 806.289 1532.2 804.959 1531.86 804.015L1527.37 812.93C1527.86 813.622 1528.52 813.967 1529.37 813.967Z" fill="url(#paint63_linear_175_198)"/>
<path d="M1530.59 836.601H1533.56V837.658H1525.85V836.601H1529.29V825.392L1526.02 827.327L1525.45 826.429L1529.5 823.956H1530.59V836.601Z" fill="url(#paint64_linear_175_198)"/>
<path d="M1529.37 846.55C1530.82 846.55 1531.91 847.155 1532.65 848.365C1533.41 849.561 1533.79 851.303 1533.79 853.59C1533.79 855.877 1533.41 857.625 1532.65 858.835C1531.91 860.045 1530.82 860.65 1529.37 860.65C1527.94 860.65 1526.85 860.045 1526.1 858.835C1525.34 857.625 1524.96 855.877 1524.96 853.59C1524.96 851.316 1525.34 849.574 1526.1 848.365C1526.85 847.155 1527.94 846.55 1529.37 846.55ZM1526.4 853.59C1526.4 855.212 1526.55 856.482 1526.84 857.399L1531.34 848.564C1530.87 847.939 1530.21 847.627 1529.37 847.627C1528.44 847.627 1527.72 848.119 1527.19 849.102C1526.66 850.073 1526.4 851.569 1526.4 853.59ZM1529.37 859.553C1530.32 859.553 1531.05 859.068 1531.58 858.097C1532.11 857.113 1532.37 855.611 1532.37 853.59C1532.37 851.875 1532.2 850.545 1531.86 849.601L1527.37 858.516C1527.86 859.207 1528.52 859.553 1529.37 859.553Z" fill="url(#paint65_linear_175_198)"/>
<path d="M1530.59 882.186H1533.56V883.243H1525.85V882.186H1529.29V870.978L1526.02 872.912L1525.45 872.015L1529.5 869.542H1530.59V882.186Z" fill="url(#paint66_linear_175_198)"/>
<path d="M1529.37 892.135C1530.82 892.135 1531.91 892.74 1532.65 893.95C1533.41 895.147 1533.79 896.888 1533.79 899.175C1533.79 901.462 1533.41 903.211 1532.65 904.421C1531.91 905.63 1530.82 906.235 1529.37 906.235C1527.94 906.235 1526.85 905.63 1526.1 904.421C1525.34 903.211 1524.96 901.462 1524.96 899.175C1524.96 896.902 1525.34 895.16 1526.1 893.95C1526.85 892.74 1527.94 892.135 1529.37 892.135ZM1526.4 899.175C1526.4 900.797 1526.55 902.067 1526.84 902.985L1531.34 894.15C1530.87 893.525 1530.21 893.212 1529.37 893.212C1528.44 893.212 1527.72 893.704 1527.19 894.688C1526.66 895.659 1526.4 897.154 1526.4 899.175ZM1529.37 905.139C1530.32 905.139 1531.05 904.653 1531.58 903.683C1532.11 902.699 1532.37 901.196 1532.37 899.175C1532.37 897.46 1532.2 896.131 1531.86 895.187L1527.37 904.101C1527.86 904.793 1528.52 905.139 1529.37 905.139Z" fill="url(#paint67_linear_175_198)"/>
<path d="M1529.37 914.928C1530.82 914.928 1531.91 915.533 1532.65 916.743C1533.41 917.94 1533.79 919.681 1533.79 921.968C1533.79 924.255 1533.41 926.003 1532.65 927.213C1531.91 928.423 1530.82 929.028 1529.37 929.028C1527.94 929.028 1526.85 928.423 1526.1 927.213C1525.34 926.003 1524.96 924.255 1524.96 921.968C1524.96 919.695 1525.34 917.953 1526.1 916.743C1526.85 915.533 1527.94 914.928 1529.37 914.928ZM1526.4 921.968C1526.4 923.59 1526.55 924.86 1526.84 925.777L1531.34 916.942C1530.87 916.317 1530.21 916.005 1529.37 916.005C1528.44 916.005 1527.72 916.497 1527.19 917.481C1526.66 918.451 1526.4 919.947 1526.4 921.968ZM1529.37 927.931C1530.32 927.931 1531.05 927.446 1531.58 926.475C1532.11 925.492 1532.37 923.989 1532.37 921.968C1532.37 920.253 1532.2 918.923 1531.86 917.979L1527.37 926.894C1527.86 927.586 1528.52 927.931 1529.37 927.931Z" fill="url(#paint68_linear_175_198)"/>
<path d="M1530.59 950.565H1533.56V951.622H1525.85V950.565H1529.29V939.356L1526.02 941.291L1525.45 940.393L1529.5 937.92H1530.59V950.565Z" fill="url(#paint69_linear_175_198)"/>
<path d="M1529.37 960.514C1530.82 960.514 1531.91 961.119 1532.65 962.329C1533.41 963.525 1533.79 965.267 1533.79 967.554C1533.79 969.841 1533.41 971.589 1532.65 972.799C1531.91 974.009 1530.82 974.614 1529.37 974.614C1527.94 974.614 1526.85 974.009 1526.1 972.799C1525.34 971.589 1524.96 969.841 1524.96 967.554C1524.96 965.28 1525.34 963.538 1526.1 962.329C1526.85 961.119 1527.94 960.514 1529.37 960.514ZM1526.4 967.554C1526.4 969.176 1526.55 970.446 1526.84 971.363L1531.34 962.528C1530.87 961.903 1530.21 961.591 1529.37 961.591C1528.44 961.591 1527.72 962.083 1527.19 963.066C1526.66 964.037 1526.4 965.533 1526.4 967.554ZM1529.37 973.517C1530.32 973.517 1531.05 973.032 1531.58 972.061C1532.11 971.077 1532.37 969.575 1532.37 967.554C1532.37 965.839 1532.2 964.509 1531.86 963.565L1527.37 972.48C1527.86 973.171 1528.52 973.517 1529.37 973.517Z" fill="url(#paint70_linear_175_198)"/>
<path d="M1530.59 996.15H1533.56V997.207H1525.85V996.15H1529.29V984.942L1526.02 986.876L1525.45 985.979L1529.5 983.506H1530.59V996.15Z" fill="url(#paint71_linear_175_198)"/>
<path d="M1530.59 1018.94H1533.56V1020H1525.85V1018.94H1529.29V1007.73L1526.02 1009.67L1525.45 1008.77L1529.5 1006.3H1530.59V1018.94Z" fill="url(#paint72_linear_175_198)"/>
<path d="M1473 755.378C1474.44 755.378 1475.54 755.983 1476.28 757.193C1477.03 758.39 1477.41 760.132 1477.41 762.419C1477.41 764.705 1477.03 766.454 1476.28 767.664C1475.54 768.874 1474.44 769.479 1473 769.479C1471.57 769.479 1470.48 768.874 1469.72 767.664C1468.97 766.454 1468.59 764.705 1468.59 762.419C1468.59 760.145 1468.97 758.403 1469.72 757.193C1470.48 755.983 1471.57 755.378 1473 755.378ZM1470.02 762.419C1470.02 764.041 1470.17 765.31 1470.47 766.228L1474.96 757.393C1474.49 756.768 1473.84 756.455 1473 756.455C1472.07 756.455 1471.34 756.947 1470.81 757.931C1470.29 758.902 1470.02 760.398 1470.02 762.419ZM1473 768.382C1473.94 768.382 1474.68 767.896 1475.21 766.926C1475.73 765.942 1475.99 764.44 1475.99 762.419C1475.99 760.703 1475.83 759.374 1475.49 758.43L1471 767.345C1471.48 768.036 1472.15 768.382 1473 768.382Z" fill="url(#paint73_linear_175_198)"/>
<path d="M1473 778.171C1474.44 778.171 1475.54 778.776 1476.28 779.986C1477.03 781.183 1477.41 782.924 1477.41 785.211C1477.41 787.498 1477.03 789.247 1476.28 790.457C1475.54 791.666 1474.44 792.271 1473 792.271C1471.57 792.271 1470.48 791.666 1469.72 790.457C1468.97 789.247 1468.59 787.498 1468.59 785.211C1468.59 782.938 1468.97 781.196 1469.72 779.986C1470.48 778.776 1471.57 778.171 1473 778.171ZM1470.02 785.211C1470.02 786.833 1470.17 788.103 1470.47 789.021L1474.96 780.186C1474.49 779.561 1473.84 779.248 1473 779.248C1472.07 779.248 1471.34 779.74 1470.81 780.724C1470.29 781.695 1470.02 783.19 1470.02 785.211ZM1473 791.174C1473.94 791.174 1474.68 790.689 1475.21 789.719C1475.73 788.735 1475.99 787.232 1475.99 785.211C1475.99 783.496 1475.83 782.167 1475.49 781.223L1471 790.137C1471.48 790.829 1472.15 791.174 1473 791.174Z" fill="url(#paint74_linear_175_198)"/>
<path d="M1474.21 813.808H1477.19V814.865H1469.48V813.808H1472.92V802.599L1469.64 804.534L1469.07 803.636L1473.12 801.163H1474.21V813.808Z" fill="url(#paint75_linear_175_198)"/>
<path d="M1473 823.757C1474.44 823.757 1475.54 824.362 1476.28 825.572C1477.03 826.768 1477.41 828.51 1477.41 830.797C1477.41 833.084 1477.03 834.832 1476.28 836.042C1475.54 837.252 1474.44 837.857 1473 837.857C1471.57 837.857 1470.48 837.252 1469.72 836.042C1468.97 834.832 1468.59 833.084 1468.59 830.797C1468.59 828.523 1468.97 826.782 1469.72 825.572C1470.48 824.362 1471.57 823.757 1473 823.757ZM1470.02 830.797C1470.02 832.419 1470.17 833.689 1470.47 834.606L1474.96 825.771C1474.49 825.146 1473.84 824.834 1473 824.834C1472.07 824.834 1471.34 825.326 1470.81 826.31C1470.29 827.28 1470.02 828.776 1470.02 830.797ZM1473 836.76C1473.94 836.76 1474.68 836.275 1475.21 835.304C1475.73 834.32 1475.99 832.818 1475.99 830.797C1475.99 829.082 1475.83 827.752 1475.49 826.808L1471 835.723C1471.48 836.414 1472.15 836.76 1473 836.76Z" fill="url(#paint76_linear_175_198)"/>
<path d="M1474.21 859.393H1477.19V860.45H1469.48V859.393H1472.92V848.185L1469.64 850.12L1469.07 849.222L1473.12 846.749H1474.21V859.393Z" fill="url(#paint77_linear_175_198)"/>
<path d="M1474.21 882.186H1477.19V883.243H1469.48V882.186H1472.92V870.978L1469.64 872.912L1469.07 872.015L1473.12 869.542H1474.21V882.186Z" fill="url(#paint78_linear_175_198)"/>
<path d="M1511.8 722.637H1514.77V723.694H1507.06V722.637H1510.5V711.428L1507.22 713.363L1506.66 712.465L1510.7 709.992H1511.8V722.637Z" fill="url(#paint79_linear_175_198)"/>
<path d="M1510.58 732.586C1512.03 732.586 1513.12 733.191 1513.86 734.4C1514.62 735.597 1514.99 737.339 1514.99 739.626C1514.99 741.913 1514.62 743.661 1513.86 744.871C1513.12 746.081 1512.03 746.686 1510.58 746.686C1509.15 746.686 1508.06 746.081 1507.3 744.871C1506.55 743.661 1506.17 741.913 1506.17 739.626C1506.17 737.352 1506.55 735.61 1507.3 734.4C1508.06 733.191 1509.15 732.586 1510.58 732.586ZM1507.61 739.626C1507.61 741.248 1507.76 742.518 1508.05 743.435L1512.55 734.6C1512.07 733.975 1511.42 733.663 1510.58 733.663C1509.65 733.663 1508.92 734.155 1508.4 735.138C1507.87 736.109 1507.61 737.605 1507.61 739.626ZM1510.58 745.589C1511.53 745.589 1512.26 745.104 1512.79 744.133C1513.31 743.149 1513.58 741.647 1513.58 739.626C1513.58 737.911 1513.41 736.581 1513.07 735.637L1508.58 744.552C1509.06 745.243 1509.73 745.589 1510.58 745.589Z" fill="url(#paint80_linear_175_198)"/>
<path d="M1511.8 768.222H1514.77V769.279H1507.06V768.222H1510.5V757.014L1507.22 758.948L1506.66 758.051L1510.7 755.578H1511.8V768.222Z" fill="url(#paint81_linear_175_198)"/>
<path d="M1511.8 791.015H1514.77V792.072H1507.06V791.015H1510.5V779.807L1507.22 781.741L1506.66 780.844L1510.7 778.371H1511.8V791.015Z" fill="url(#paint82_linear_175_198)"/>
<path d="M1510.58 800.964C1512.03 800.964 1513.12 801.569 1513.86 802.779C1514.62 803.976 1514.99 805.717 1514.99 808.004C1514.99 810.291 1514.62 812.039 1513.86 813.249C1513.12 814.459 1512.03 815.064 1510.58 815.064C1509.15 815.064 1508.06 814.459 1507.3 813.249C1506.55 812.039 1506.17 810.291 1506.17 808.004C1506.17 805.731 1506.55 803.989 1507.3 802.779C1508.06 801.569 1509.15 800.964 1510.58 800.964ZM1507.61 808.004C1507.61 809.626 1507.76 810.896 1508.05 811.813L1512.55 802.978C1512.07 802.353 1511.42 802.041 1510.58 802.041C1509.65 802.041 1508.92 802.533 1508.4 803.517C1507.87 804.487 1507.61 805.983 1507.61 808.004ZM1510.58 813.967C1511.53 813.967 1512.26 813.482 1512.79 812.511C1513.31 811.528 1513.58 810.025 1513.58 808.004C1513.58 806.289 1513.41 804.959 1513.07 804.015L1508.58 812.93C1509.06 813.622 1509.73 813.967 1510.58 813.967Z" fill="url(#paint83_linear_175_198)"/>
<path d="M1511.8 836.601H1514.77V837.658H1507.06V836.601H1510.5V825.392L1507.22 827.327L1506.66 826.429L1510.7 823.956H1511.8V836.601Z" fill="url(#paint84_linear_175_198)"/>
<path d="M1511.8 859.393H1514.77V860.45H1507.06V859.393H1510.5V848.185L1507.22 850.12L1506.66 849.222L1510.7 846.749H1511.8V859.393Z" fill="url(#paint85_linear_175_198)"/>
<path d="M1510.58 869.342C1512.03 869.342 1513.12 869.947 1513.86 871.157C1514.62 872.354 1514.99 874.096 1514.99 876.383C1514.99 878.669 1514.62 880.418 1513.86 881.628C1513.12 882.838 1512.03 883.443 1510.58 883.443C1509.15 883.443 1508.06 882.838 1507.3 881.628C1506.55 880.418 1506.17 878.669 1506.17 876.383C1506.17 874.109 1506.55 872.367 1507.3 871.157C1508.06 869.947 1509.15 869.342 1510.58 869.342ZM1507.61 876.383C1507.61 878.005 1507.76 879.274 1508.05 880.192L1512.55 871.357C1512.07 870.732 1511.42 870.419 1510.58 870.419C1509.65 870.419 1508.92 870.911 1508.4 871.895C1507.87 872.866 1507.61 874.362 1507.61 876.383ZM1510.58 882.346C1511.53 882.346 1512.26 881.86 1512.79 880.89C1513.31 879.906 1513.58 878.404 1513.58 876.383C1513.58 874.667 1513.41 873.338 1513.07 872.394L1508.58 881.309C1509.06 882 1509.73 882.346 1510.58 882.346Z" fill="url(#paint86_linear_175_198)"/>
<path d="M1511.8 904.979H1514.77V906.036H1507.06V904.979H1510.5V893.771L1507.22 895.705L1506.66 894.808L1510.7 892.335H1511.8V904.979Z" fill="url(#paint87_linear_175_198)"/>
<path d="M1510.58 914.928C1512.03 914.928 1513.12 915.533 1513.86 916.743C1514.62 917.94 1514.99 919.681 1514.99 921.968C1514.99 924.255 1514.62 926.003 1513.86 927.213C1513.12 928.423 1512.03 929.028 1510.58 929.028C1509.15 929.028 1508.06 928.423 1507.3 927.213C1506.55 926.003 1506.17 924.255 1506.17 921.968C1506.17 919.695 1506.55 917.953 1507.3 916.743C1508.06 915.533 1509.15 914.928 1510.58 914.928ZM1507.61 921.968C1507.61 923.59 1507.76 924.86 1508.05 925.777L1512.55 916.942C1512.07 916.317 1511.42 916.005 1510.58 916.005C1509.65 916.005 1508.92 916.497 1508.4 917.481C1507.87 918.451 1507.61 919.947 1507.61 921.968ZM1510.58 927.931C1511.53 927.931 1512.26 927.446 1512.79 926.475C1513.31 925.492 1513.58 923.989 1513.58 921.968C1513.58 920.253 1513.41 918.923 1513.07 917.979L1508.58 926.894C1509.06 927.586 1509.73 927.931 1510.58 927.931Z" fill="url(#paint88_linear_175_198)"/>
<path d="M1548.17 709.793C1549.61 709.793 1550.7 710.398 1551.44 711.608C1552.2 712.804 1552.58 714.546 1552.58 716.833C1552.58 719.12 1552.2 720.868 1551.44 722.078C1550.7 723.288 1549.61 723.893 1548.17 723.893C1546.74 723.893 1545.64 723.288 1544.89 722.078C1544.13 720.868 1543.75 719.12 1543.75 716.833C1543.75 714.559 1544.13 712.818 1544.89 711.608C1545.64 710.398 1546.74 709.793 1548.17 709.793ZM1545.19 716.833C1545.19 718.455 1545.34 719.725 1545.64 720.642L1550.13 711.807C1549.66 711.182 1549 710.87 1548.17 710.87C1547.24 710.87 1546.51 711.362 1545.98 712.346C1545.45 713.316 1545.19 714.812 1545.19 716.833ZM1548.17 722.796C1549.11 722.796 1549.85 722.311 1550.37 721.34C1550.9 720.356 1551.16 718.854 1551.16 716.833C1551.16 715.118 1550.99 713.788 1550.66 712.844L1546.16 721.759C1546.65 722.45 1547.32 722.796 1548.17 722.796Z" fill="url(#paint89_linear_175_198)"/>
<path d="M1549.38 745.429H1552.36V746.486H1544.64V745.429H1548.09V734.221L1544.81 736.156L1544.24 735.258L1548.29 732.785H1549.38V745.429Z" fill="url(#paint90_linear_175_198)"/>
<path d="M1549.38 768.222H1552.36V769.279H1544.64V768.222H1548.09V757.014L1544.81 758.948L1544.24 758.051L1548.29 755.578H1549.38V768.222Z" fill="url(#paint91_linear_175_198)"/>
<path d="M1548.17 778.171C1549.61 778.171 1550.7 778.776 1551.44 779.986C1552.2 781.183 1552.58 782.924 1552.58 785.211C1552.58 787.498 1552.2 789.247 1551.44 790.457C1550.7 791.666 1549.61 792.271 1548.17 792.271C1546.74 792.271 1545.64 791.666 1544.89 790.457C1544.13 789.247 1543.75 787.498 1543.75 785.211C1543.75 782.938 1544.13 781.196 1544.89 779.986C1545.64 778.776 1546.74 778.171 1548.17 778.171ZM1545.19 785.211C1545.19 786.833 1545.34 788.103 1545.64 789.021L1550.13 780.186C1549.66 779.561 1549 779.248 1548.17 779.248C1547.24 779.248 1546.51 779.74 1545.98 780.724C1545.45 781.695 1545.19 783.19 1545.19 785.211ZM1548.17 791.174C1549.11 791.174 1549.85 790.689 1550.37 789.719C1550.9 788.735 1551.16 787.232 1551.16 785.211C1551.16 783.496 1550.99 782.167 1550.66 781.223L1546.16 790.137C1546.65 790.829 1547.32 791.174 1548.17 791.174Z" fill="url(#paint92_linear_175_198)"/>
<path d="M1548.17 800.964C1549.61 800.964 1550.7 801.569 1551.44 802.779C1552.2 803.976 1552.58 805.717 1552.58 808.004C1552.58 810.291 1552.2 812.039 1551.44 813.249C1550.7 814.459 1549.61 815.064 1548.17 815.064C1546.74 815.064 1545.64 814.459 1544.89 813.249C1544.13 812.039 1543.75 810.291 1543.75 808.004C1543.75 805.731 1544.13 803.989 1544.89 802.779C1545.64 801.569 1546.74 800.964 1548.17 800.964ZM1545.19 808.004C1545.19 809.626 1545.34 810.896 1545.64 811.813L1550.13 802.978C1549.66 802.353 1549 802.041 1548.17 802.041C1547.24 802.041 1546.51 802.533 1545.98 803.517C1545.45 804.487 1545.19 805.983 1545.19 808.004ZM1548.17 813.967C1549.11 813.967 1549.85 813.482 1550.37 812.511C1550.9 811.528 1551.16 810.025 1551.16 808.004C1551.16 806.289 1550.99 804.959 1550.66 804.015L1546.16 812.93C1546.65 813.622 1547.32 813.967 1548.17 813.967Z" fill="url(#paint93_linear_175_198)"/>
</g>
<defs>
<filter id="filter0_f_175_198" x="0.809998" y="0.809998" width="2157.38" height="1500.38" filterUnits="userSpaceOnUse" color-interpolation-filters="sRGB">
<feFlood flood-opacity="0" result="BackgroundImageFix"/>
<feBlend mode="normal" in="SourceGraphic" in2="BackgroundImageFix" result="shape"/>
<feGaussianBlur stdDeviation="200.095" result="effect1_foregroundBlur_175_198"/>
</filter>
<linearGradient id="paint0_linear_175_198" x1="614.012" y1="987" x2="614.012" y2="1298.38" gradientUnits="userSpaceOnUse">
<stop stop-color="#F7DD43"/>
<stop offset="1" stop-color="#F7DD43" stop-opacity="0"/>
</linearGradient>
<linearGradient id="paint1_linear_175_198" x1="614.012" y1="987" x2="614.012" y2="1298.38" gradientUnits="userSpaceOnUse">
<stop stop-color="#F7DD43"/>
<stop offset="1" stop-color="#F7DD43" stop-opacity="0"/>
</linearGradient>
<linearGradient id="paint2_linear_175_198" x1="614.012" y1="987" x2="614.012" y2="1298.38" gradientUnits="userSpaceOnUse">
<stop stop-color="#F7DD43"/>
<stop offset="1" stop-color="#F7DD43" stop-opacity="0"/>
</linearGradient>
<linearGradient id="paint3_linear_175_198" x1="614.012" y1="987" x2="614.012" y2="1298.38" gradientUnits="userSpaceOnUse">
<stop stop-color="#F7DD43"/>
<stop offset="1" stop-color="#F7DD43" stop-opacity="0"/>
</linearGradient>
<linearGradient id="paint4_linear_175_198" x1="614.012" y1="987" x2="614.012" y2="1298.38" gradientUnits="userSpaceOnUse">
<stop stop-color="#F7DD43"/>
<stop offset="1" stop-color="#F7DD43" stop-opacity="0"/>
</linearGradient>
<linearGradient id="paint5_linear_175_198" x1="614.012" y1="987" x2="614.012" y2="1298.38" gradientUnits="userSpaceOnUse">
<stop stop-color="#F7DD43"/>
<stop offset="1" stop-color="#F7DD43" stop-opacity="0"/>
</linearGradient>
<linearGradient id="paint6_linear_175_198" x1="614.012" y1="987" x2="614.012" y2="1298.38" gradientUnits="userSpaceOnUse">
<stop stop-color="#F7DD43"/>
<stop offset="1" stop-color="#F7DD43" stop-opacity="0"/>
</linearGradient>
<linearGradient id="paint7_linear_175_198" x1="614.012" y1="987" x2="614.012" y2="1298.38" gradientUnits="userSpaceOnUse">
<stop stop-color="#F7DD43"/>
<stop offset="1" stop-color="#F7DD43" stop-opacity="0"/>
</linearGradient>
<linearGradient id="paint8_linear_175_198" x1="614.012" y1="987" x2="614.012" y2="1298.38" gradientUnits="userSpaceOnUse">
<stop stop-color="#F7DD43"/>
<stop offset="1" stop-color="#F7DD43" stop-opacity="0"/>
</linearGradient>
<linearGradient id="paint9_linear_175_198" x1="614.012" y1="987" x2="614.012" y2="1298.38" gradientUnits="userSpaceOnUse">
<stop stop-color="#F7DD43"/>
<stop offset="1" stop-color="#F7DD43" stop-opacity="0"/>
</linearGradient>
<linearGradient id="paint10_linear_175_198" x1="614.012" y1="987" x2="614.012" y2="1298.38" gradientUnits="userSpaceOnUse">
<stop stop-color="#F7DD43"/>
<stop offset="1" stop-color="#F7DD43" stop-opacity="0"/>
</linearGradient>
<linearGradient id="paint11_linear_175_198" x1="614.012" y1="987" x2="614.012" y2="1298.38" gradientUnits="userSpaceOnUse">
<stop stop-color="#F7DD43"/>
<stop offset="1" stop-color="#F7DD43" stop-opacity="0"/>
</linearGradient>
<linearGradient id="paint12_linear_175_198" x1="614.012" y1="987" x2="614.012" y2="1298.38" gradientUnits="userSpaceOnUse">
<stop stop-color="#F7DD43"/>
<stop offset="1" stop-color="#F7DD43" stop-opacity="0"/>
</linearGradient>
<linearGradient id="paint13_linear_175_198" x1="614.012" y1="987" x2="614.012" y2="1298.38" gradientUnits="userSpaceOnUse">
<stop stop-color="#F7DD43"/>
<stop offset="1" stop-color="#F7DD43" stop-opacity="0"/>
</linearGradient>
<linearGradient id="paint14_linear_175_198" x1="614.012" y1="987" x2="614.012" y2="1298.38" gradientUnits="userSpaceOnUse">
<stop stop-color="#F7DD43"/>
<stop offset="1" stop-color="#F7DD43" stop-opacity="0"/>
</linearGradient>
<linearGradient id="paint15_linear_175_198" x1="614.012" y1="987" x2="614.012" y2="1298.38" gradientUnits="userSpaceOnUse">
<stop stop-color="#F7DD43"/>
<stop offset="1" stop-color="#F7DD43" stop-opacity="0"/>
</linearGradient>
<linearGradient id="paint16_linear_175_198" x1="614.012" y1="987" x2="614.012" y2="1298.38" gradientUnits="userSpaceOnUse">
<stop stop-color="#F7DD43"/>
<stop offset="1" stop-color="#F7DD43" stop-opacity="0"/>
</linearGradient>
<linearGradient id="paint17_linear_175_198" x1="614.012" y1="987" x2="614.012" y2="1298.38" gradientUnits="userSpaceOnUse">
<stop stop-color="#F7DD43"/>
<stop offset="1" stop-color="#F7DD43" stop-opacity="0"/>
</linearGradient>
<linearGradient id="paint18_linear_175_198" x1="614.012" y1="987" x2="614.012" y2="1298.38" gradientUnits="userSpaceOnUse">
<stop stop-color="#F7DD43"/>
<stop offset="1" stop-color="#F7DD43" stop-opacity="0"/>
</linearGradient>
<linearGradient id="paint19_linear_175_198" x1="614.012" y1="987" x2="614.012" y2="1298.38" gradientUnits="userSpaceOnUse">
<stop stop-color="#F7DD43"/>
<stop offset="1" stop-color="#F7DD43" stop-opacity="0"/>
</linearGradient>
<linearGradient id="paint20_linear_175_198" x1="614.012" y1="987" x2="614.012" y2="1298.38" gradientUnits="userSpaceOnUse">
<stop stop-color="#F7DD43"/>
<stop offset="1" stop-color="#F7DD43" stop-opacity="0"/>
</linearGradient>
<linearGradient id="paint21_linear_175_198" x1="614.012" y1="987" x2="614.012" y2="1298.38" gradientUnits="userSpaceOnUse">
<stop stop-color="#F7DD43"/>
<stop offset="1" stop-color="#F7DD43" stop-opacity="0"/>
</linearGradient>
<linearGradient id="paint22_linear_175_198" x1="614.012" y1="987" x2="614.012" y2="1298.38" gradientUnits="userSpaceOnUse">
<stop stop-color="#F7DD43"/>
<stop offset="1" stop-color="#F7DD43" stop-opacity="0"/>
</linearGradient>
<linearGradient id="paint23_linear_175_198" x1="614.012" y1="987" x2="614.012" y2="1298.38" gradientUnits="userSpaceOnUse">
<stop stop-color="#F7DD43"/>
<stop offset="1" stop-color="#F7DD43" stop-opacity="0"/>
</linearGradient>
<linearGradient id="paint24_linear_175_198" x1="614.012" y1="987" x2="614.012" y2="1298.38" gradientUnits="userSpaceOnUse">
<stop stop-color="#F7DD43"/>
<stop offset="1" stop-color="#F7DD43" stop-opacity="0"/>
</linearGradient>
<linearGradient id="paint25_linear_175_198" x1="614.012" y1="987" x2="614.012" y2="1298.38" gradientUnits="userSpaceOnUse">
<stop stop-color="#F7DD43"/>
<stop offset="1" stop-color="#F7DD43" stop-opacity="0"/>
</linearGradient>
<linearGradient id="paint26_linear_175_198" x1="614.012" y1="987" x2="614.012" y2="1298.38" gradientUnits="userSpaceOnUse">
<stop stop-color="#F7DD43"/>
<stop offset="1" stop-color="#F7DD43" stop-opacity="0"/>
</linearGradient>
<linearGradient id="paint27_linear_175_198" x1="614.012" y1="987" x2="614.012" y2="1298.38" gradientUnits="userSpaceOnUse">
<stop stop-color="#F7DD43"/>
<stop offset="1" stop-color="#F7DD43" stop-opacity="0"/>
</linearGradient>
<linearGradient id="paint28_linear_175_198" x1="614.012" y1="987" x2="614.012" y2="1298.38" gradientUnits="userSpaceOnUse">
<stop stop-color="#F7DD43"/>
<stop offset="1" stop-color="#F7DD43" stop-opacity="0"/>
</linearGradient>
<linearGradient id="paint29_linear_175_198" x1="614.012" y1="987" x2="614.012" y2="1298.38" gradientUnits="userSpaceOnUse">
<stop stop-color="#F7DD43"/>
<stop offset="1" stop-color="#F7DD43" stop-opacity="0"/>
</linearGradient>
<linearGradient id="paint30_linear_175_198" x1="614.012" y1="987" x2="614.012" y2="1298.38" gradientUnits="userSpaceOnUse">
<stop stop-color="#F7DD43"/>
<stop offset="1" stop-color="#F7DD43" stop-opacity="0"/>
</linearGradient>
<linearGradient id="paint31_linear_175_198" x1="614.012" y1="987" x2="614.012" y2="1298.38" gradientUnits="userSpaceOnUse">
<stop stop-color="#F7DD43"/>
<stop offset="1" stop-color="#F7DD43" stop-opacity="0"/>
</linearGradient>
<linearGradient id="paint32_linear_175_198" x1="614.012" y1="987" x2="614.012" y2="1298.38" gradientUnits="userSpaceOnUse">
<stop stop-color="#F7DD43"/>
<stop offset="1" stop-color="#F7DD43" stop-opacity="0"/>
</linearGradient>
<linearGradient id="paint33_linear_175_198" x1="614.012" y1="987" x2="614.012" y2="1298.38" gradientUnits="userSpaceOnUse">
<stop stop-color="#F7DD43"/>
<stop offset="1" stop-color="#F7DD43" stop-opacity="0"/>
</linearGradient>
<linearGradient id="paint34_linear_175_198" x1="614.012" y1="987" x2="614.012" y2="1298.38" gradientUnits="userSpaceOnUse">
<stop stop-color="#F7DD43"/>
<stop offset="1" stop-color="#F7DD43" stop-opacity="0"/>
</linearGradient>
<linearGradient id="paint35_linear_175_198" x1="614.012" y1="987" x2="614.012" y2="1298.38" gradientUnits="userSpaceOnUse">
<stop stop-color="#F7DD43"/>
<stop offset="1" stop-color="#F7DD43" stop-opacity="0"/>
</linearGradient>
<linearGradient id="paint36_linear_175_198" x1="614.012" y1="987" x2="614.012" y2="1298.38" gradientUnits="userSpaceOnUse">
<stop stop-color="#F7DD43"/>
<stop offset="1" stop-color="#F7DD43" stop-opacity="0"/>
</linearGradient>
<linearGradient id="paint37_linear_175_198" x1="614.012" y1="987" x2="614.012" y2="1298.38" gradientUnits="userSpaceOnUse">
<stop stop-color="#F7DD43"/>
<stop offset="1" stop-color="#F7DD43" stop-opacity="0"/>
</linearGradient>
<linearGradient id="paint38_linear_175_198" x1="614.012" y1="987" x2="614.012" y2="1298.38" gradientUnits="userSpaceOnUse">
<stop stop-color="#F7DD43"/>
<stop offset="1" stop-color="#F7DD43" stop-opacity="0"/>
</linearGradient>
<linearGradient id="paint39_linear_175_198" x1="614.012" y1="987" x2="614.012" y2="1298.38" gradientUnits="userSpaceOnUse">
<stop stop-color="#F7DD43"/>
<stop offset="1" stop-color="#F7DD43" stop-opacity="0"/>
</linearGradient>
<linearGradient id="paint40_linear_175_198" x1="614.012" y1="987" x2="614.012" y2="1298.38" gradientUnits="userSpaceOnUse">
<stop stop-color="#F7DD43"/>
<stop offset="1" stop-color="#F7DD43" stop-opacity="0"/>
</linearGradient>
<linearGradient id="paint41_linear_175_198" x1="614.012" y1="987" x2="614.012" y2="1298.38" gradientUnits="userSpaceOnUse">
<stop stop-color="#F7DD43"/>
<stop offset="1" stop-color="#F7DD43" stop-opacity="0"/>
</linearGradient>
<linearGradient id="paint42_linear_175_198" x1="614.012" y1="987" x2="614.012" y2="1298.38" gradientUnits="userSpaceOnUse">
<stop stop-color="#F7DD43"/>
<stop offset="1" stop-color="#F7DD43" stop-opacity="0"/>
</linearGradient>
<linearGradient id="paint43_linear_175_198" x1="614.012" y1="987" x2="614.012" y2="1298.38" gradientUnits="userSpaceOnUse">
<stop stop-color="#F7DD43"/>
<stop offset="1" stop-color="#F7DD43" stop-opacity="0"/>
</linearGradient>
<linearGradient id="paint44_linear_175_198" x1="614.012" y1="987" x2="614.012" y2="1298.38" gradientUnits="userSpaceOnUse">
<stop stop-color="#F7DD43"/>
<stop offset="1" stop-color="#F7DD43" stop-opacity="0"/>
</linearGradient>
<linearGradient id="paint45_linear_175_198" x1="614.012" y1="987" x2="614.012" y2="1298.38" gradientUnits="userSpaceOnUse">
<stop stop-color="#F7DD43"/>
<stop offset="1" stop-color="#F7DD43" stop-opacity="0"/>
</linearGradient>
<linearGradient id="paint46_linear_175_198" x1="614.012" y1="987" x2="614.012" y2="1298.38" gradientUnits="userSpaceOnUse">
<stop stop-color="#F7DD43"/>
<stop offset="1" stop-color="#F7DD43" stop-opacity="0"/>
</linearGradient>
<linearGradient id="paint47_linear_175_198" x1="1510.58" y1="687" x2="1510.58" y2="985.818" gradientUnits="userSpaceOnUse">
<stop stop-color="#F7DD43"/>
<stop offset="1" stop-color="#F7DD43" stop-opacity="0"/>
</linearGradient>
<linearGradient id="paint48_linear_175_198" x1="1510.58" y1="687" x2="1510.58" y2="985.818" gradientUnits="userSpaceOnUse">
<stop stop-color="#F7DD43"/>
<stop offset="1" stop-color="#F7DD43" stop-opacity="0"/>
</linearGradient>
<linearGradient id="paint49_linear_175_198" x1="1510.58" y1="687" x2="1510.58" y2="985.818" gradientUnits="userSpaceOnUse">
<stop stop-color="#F7DD43"/>
<stop offset="1" stop-color="#F7DD43" stop-opacity="0"/>
</linearGradient>
<linearGradient id="paint50_linear_175_198" x1="1510.58" y1="687" x2="1510.58" y2="985.818" gradientUnits="userSpaceOnUse">
<stop stop-color="#F7DD43"/>
<stop offset="1" stop-color="#F7DD43" stop-opacity="0"/>
</linearGradient>
<linearGradient id="paint51_linear_175_198" x1="1510.58" y1="687" x2="1510.58" y2="985.818" gradientUnits="userSpaceOnUse">
<stop stop-color="#F7DD43"/>
<stop offset="1" stop-color="#F7DD43" stop-opacity="0"/>
</linearGradient>
<linearGradient id="paint52_linear_175_198" x1="1510.58" y1="687" x2="1510.58" y2="985.818" gradientUnits="userSpaceOnUse">
<stop stop-color="#F7DD43"/>
<stop offset="1" stop-color="#F7DD43" stop-opacity="0"/>
</linearGradient>
<linearGradient id="paint53_linear_175_198" x1="1510.58" y1="687" x2="1510.58" y2="985.818" gradientUnits="userSpaceOnUse">
<stop stop-color="#F7DD43"/>
<stop offset="1" stop-color="#F7DD43" stop-opacity="0"/>
</linearGradient>
<linearGradient id="paint54_linear_175_198" x1="1510.58" y1="687" x2="1510.58" y2="985.818" gradientUnits="userSpaceOnUse">
<stop stop-color="#F7DD43"/>
<stop offset="1" stop-color="#F7DD43" stop-opacity="0"/>
</linearGradient>
<linearGradient id="paint55_linear_175_198" x1="1510.58" y1="687" x2="1510.58" y2="985.818" gradientUnits="userSpaceOnUse">
<stop stop-color="#F7DD43"/>
<stop offset="1" stop-color="#F7DD43" stop-opacity="0"/>
</linearGradient>
<linearGradient id="paint56_linear_175_198" x1="1510.58" y1="687" x2="1510.58" y2="985.818" gradientUnits="userSpaceOnUse">
<stop stop-color="#F7DD43"/>
<stop offset="1" stop-color="#F7DD43" stop-opacity="0"/>
</linearGradient>
<linearGradient id="paint57_linear_175_198" x1="1510.58" y1="687" x2="1510.58" y2="985.818" gradientUnits="userSpaceOnUse">
<stop stop-color="#F7DD43"/>
<stop offset="1" stop-color="#F7DD43" stop-opacity="0"/>
</linearGradient>
<linearGradient id="paint58_linear_175_198" x1="1510.58" y1="687" x2="1510.58" y2="985.818" gradientUnits="userSpaceOnUse">
<stop stop-color="#F7DD43"/>
<stop offset="1" stop-color="#F7DD43" stop-opacity="0"/>
</linearGradient>
<linearGradient id="paint59_linear_175_198" x1="1510.58" y1="687" x2="1510.58" y2="985.818" gradientUnits="userSpaceOnUse">
<stop stop-color="#F7DD43"/>
<stop offset="1" stop-color="#F7DD43" stop-opacity="0"/>
</linearGradient>
<linearGradient id="paint60_linear_175_198" x1="1510.58" y1="687" x2="1510.58" y2="985.818" gradientUnits="userSpaceOnUse">
<stop stop-color="#F7DD43"/>
<stop offset="1" stop-color="#F7DD43" stop-opacity="0"/>
</linearGradient>
<linearGradient id="paint61_linear_175_198" x1="1510.58" y1="687" x2="1510.58" y2="985.818" gradientUnits="userSpaceOnUse">
<stop stop-color="#F7DD43"/>
<stop offset="1" stop-color="#F7DD43" stop-opacity="0"/>
</linearGradient>
<linearGradient id="paint62_linear_175_198" x1="1510.58" y1="687" x2="1510.58" y2="985.818" gradientUnits="userSpaceOnUse">
<stop stop-color="#F7DD43"/>
<stop offset="1" stop-color="#F7DD43" stop-opacity="0"/>
</linearGradient>
<linearGradient id="paint63_linear_175_198" x1="1510.58" y1="687" x2="1510.58" y2="985.818" gradientUnits="userSpaceOnUse">
<stop stop-color="#F7DD43"/>
<stop offset="1" stop-color="#F7DD43" stop-opacity="0"/>
</linearGradient>
<linearGradient id="paint64_linear_175_198" x1="1510.58" y1="687" x2="1510.58" y2="985.818" gradientUnits="userSpaceOnUse">
<stop stop-color="#F7DD43"/>
<stop offset="1" stop-color="#F7DD43" stop-opacity="0"/>
</linearGradient>
<linearGradient id="paint65_linear_175_198" x1="1510.58" y1="687" x2="1510.58" y2="985.818" gradientUnits="userSpaceOnUse">
<stop stop-color="#F7DD43"/>
<stop offset="1" stop-color="#F7DD43" stop-opacity="0"/>
</linearGradient>
<linearGradient id="paint66_linear_175_198" x1="1510.58" y1="687" x2="1510.58" y2="985.818" gradientUnits="userSpaceOnUse">
<stop stop-color="#F7DD43"/>
<stop offset="1" stop-color="#F7DD43" stop-opacity="0"/>
</linearGradient>
<linearGradient id="paint67_linear_175_198" x1="1510.58" y1="687" x2="1510.58" y2="985.818" gradientUnits="userSpaceOnUse">
<stop stop-color="#F7DD43"/>
<stop offset="1" stop-color="#F7DD43" stop-opacity="0"/>
</linearGradient>
<linearGradient id="paint68_linear_175_198" x1="1510.58" y1="687" x2="1510.58" y2="985.818" gradientUnits="userSpaceOnUse">
<stop stop-color="#F7DD43"/>
<stop offset="1" stop-color="#F7DD43" stop-opacity="0"/>
</linearGradient>
<linearGradient id="paint69_linear_175_198" x1="1510.58" y1="687" x2="1510.58" y2="985.818" gradientUnits="userSpaceOnUse">
<stop stop-color="#F7DD43"/>
<stop offset="1" stop-color="#F7DD43" stop-opacity="0"/>
</linearGradient>
<linearGradient id="paint70_linear_175_198" x1="1510.58" y1="687" x2="1510.58" y2="985.818" gradientUnits="userSpaceOnUse">
<stop stop-color="#F7DD43"/>
<stop offset="1" stop-color="#F7DD43" stop-opacity="0"/>
</linearGradient>
<linearGradient id="paint71_linear_175_198" x1="1510.58" y1="687" x2="1510.58" y2="985.818" gradientUnits="userSpaceOnUse">
<stop stop-color="#F7DD43"/>
<stop offset="1" stop-color="#F7DD43" stop-opacity="0"/>
</linearGradient>
<linearGradient id="paint72_linear_175_198" x1="1510.58" y1="687" x2="1510.58" y2="985.818" gradientUnits="userSpaceOnUse">
<stop stop-color="#F7DD43"/>
<stop offset="1" stop-color="#F7DD43" stop-opacity="0"/>
</linearGradient>
<linearGradient id="paint73_linear_175_198" x1="1510.58" y1="687" x2="1510.58" y2="985.818" gradientUnits="userSpaceOnUse">
<stop stop-color="#F7DD43"/>
<stop offset="1" stop-color="#F7DD43" stop-opacity="0"/>
</linearGradient>
<linearGradient id="paint74_linear_175_198" x1="1510.58" y1="687" x2="1510.58" y2="985.818" gradientUnits="userSpaceOnUse">
<stop stop-color="#F7DD43"/>
<stop offset="1" stop-color="#F7DD43" stop-opacity="0"/>
</linearGradient>
<linearGradient id="paint75_linear_175_198" x1="1510.58" y1="687" x2="1510.58" y2="985.818" gradientUnits="userSpaceOnUse">
<stop stop-color="#F7DD43"/>
<stop offset="1" stop-color="#F7DD43" stop-opacity="0"/>
</linearGradient>
<linearGradient id="paint76_linear_175_198" x1="1510.58" y1="687" x2="1510.58" y2="985.818" gradientUnits="userSpaceOnUse">
<stop stop-color="#F7DD43"/>
<stop offset="1" stop-color="#F7DD43" stop-opacity="0"/>
</linearGradient>
<linearGradient id="paint77_linear_175_198" x1="1510.58" y1="687" x2="1510.58" y2="985.818" gradientUnits="userSpaceOnUse">
<stop stop-color="#F7DD43"/>
<stop offset="1" stop-color="#F7DD43" stop-opacity="0"/>
</linearGradient>
<linearGradient id="paint78_linear_175_198" x1="1510.58" y1="687" x2="1510.58" y2="985.818" gradientUnits="userSpaceOnUse">
<stop stop-color="#F7DD43"/>
<stop offset="1" stop-color="#F7DD43" stop-opacity="0"/>
</linearGradient>
<linearGradient id="paint79_linear_175_198" x1="1510.58" y1="687" x2="1510.58" y2="985.818" gradientUnits="userSpaceOnUse">
<stop stop-color="#F7DD43"/>
<stop offset="1" stop-color="#F7DD43" stop-opacity="0"/>
</linearGradient>
<linearGradient id="paint80_linear_175_198" x1="1510.58" y1="687" x2="1510.58" y2="985.818" gradientUnits="userSpaceOnUse">
<stop stop-color="#F7DD43"/>
<stop offset="1" stop-color="#F7DD43" stop-opacity="0"/>
</linearGradient>
<linearGradient id="paint81_linear_175_198" x1="1510.58" y1="687" x2="1510.58" y2="985.818" gradientUnits="userSpaceOnUse">
<stop stop-color="#F7DD43"/>
<stop offset="1" stop-color="#F7DD43" stop-opacity="0"/>
</linearGradient>
<linearGradient id="paint82_linear_175_198" x1="1510.58" y1="687" x2="1510.58" y2="985.818" gradientUnits="userSpaceOnUse">
<stop stop-color="#F7DD43"/>
<stop offset="1" stop-color="#F7DD43" stop-opacity="0"/>
</linearGradient>
<linearGradient id="paint83_linear_175_198" x1="1510.58" y1="687" x2="1510.58" y2="985.818" gradientUnits="userSpaceOnUse">
<stop stop-color="#F7DD43"/>
<stop offset="1" stop-color="#F7DD43" stop-opacity="0"/>
</linearGradient>
<linearGradient id="paint84_linear_175_198" x1="1510.58" y1="687" x2="1510.58" y2="985.818" gradientUnits="userSpaceOnUse">
<stop stop-color="#F7DD43"/>
<stop offset="1" stop-color="#F7DD43" stop-opacity="0"/>
</linearGradient>
<linearGradient id="paint85_linear_175_198" x1="1510.58" y1="687" x2="1510.58" y2="985.818" gradientUnits="userSpaceOnUse">
<stop stop-color="#F7DD43"/>
<stop offset="1" stop-color="#F7DD43" stop-opacity="0"/>
</linearGradient>
<linearGradient id="paint86_linear_175_198" x1="1510.58" y1="687" x2="1510.58" y2="985.818" gradientUnits="userSpaceOnUse">
<stop stop-color="#F7DD43"/>
<stop offset="1" stop-color="#F7DD43" stop-opacity="0"/>
</linearGradient>
<linearGradient id="paint87_linear_175_198" x1="1510.58" y1="687" x2="1510.58" y2="985.818" gradientUnits="userSpaceOnUse">
<stop stop-color="#F7DD43"/>
<stop offset="1" stop-color="#F7DD43" stop-opacity="0"/>
</linearGradient>
<linearGradient id="paint88_linear_175_198" x1="1510.58" y1="687" x2="1510.58" y2="985.818" gradientUnits="userSpaceOnUse">
<stop stop-color="#F7DD43"/>
<stop offset="1" stop-color="#F7DD43" stop-opacity="0"/>
</linearGradient>
<linearGradient id="paint89_linear_175_198" x1="1510.58" y1="687" x2="1510.58" y2="985.818" gradientUnits="userSpaceOnUse">
<stop stop-color="#F7DD43"/>
<stop offset="1" stop-color="#F7DD43" stop-opacity="0"/>
</linearGradient>
<linearGradient id="paint90_linear_175_198" x1="1510.58" y1="687" x2="1510.58" y2="985.818" gradientUnits="userSpaceOnUse">
<stop stop-color="#F7DD43"/>
<stop offset="1" stop-color="#F7DD43" stop-opacity="0"/>
</linearGradient>
<linearGradient id="paint91_linear_175_198" x1="1510.58" y1="687" x2="1510.58" y2="985.818" gradientUnits="userSpaceOnUse">
<stop stop-color="#F7DD43"/>
<stop offset="1" stop-color="#F7DD43" stop-opacity="0"/>
</linearGradient>
<linearGradient id="paint92_linear_175_198" x1="1510.58" y1="687" x2="1510.58" y2="985.818" gradientUnits="userSpaceOnUse">
<stop stop-color="#F7DD43"/>
<stop offset="1" stop-color="#F7DD43" stop-opacity="0"/>
</linearGradient>
<linearGradient id="paint93_linear_175_198" x1="1510.58" y1="687" x2="1510.58" y2="985.818" gradientUnits="userSpaceOnUse">
<stop stop-color="#F7DD43"/>
<stop offset="1" stop-color="#F7DD43" stop-opacity="0"/>
</linearGradient>
</defs>
</svg>
